<svg id="Camada_1" data-name="Camada 1" xmlns="http://www.w3.org/2000/svg" xmlns:xlink="http://www.w3.org/1999/xlink" viewBox="0 0 299 299"><defs><style>.cls-1{fill:none;stroke-width:4px;opacity:0.71;stroke:url(#Gradiente_sem_nome_75);}.cls-1,.cls-5,.cls-6{stroke-miterlimit:10;}.cls-2{opacity:0.62;}.cls-3{fill:url(#Gradiente_sem_nome_38);}.cls-4{fill:url(#Gradiente_sem_nome_99);}.cls-5{fill:url(#Gradiente_sem_nome_33);stroke:url(#Nova_amostra_de_gradiente_3);}.cls-6{fill:url(#Nova_amostra_de_gradiente_1);stroke:url(#Nova_amostra_de_gradiente_3-2);}</style><linearGradient id="Gradiente_sem_nome_75" x1="270.46" y1="237.38" x2="28.54" y2="61.62" gradientUnits="userSpaceOnUse"><stop offset="0" stop-color="#6344eb"/><stop offset="0.29" stop-color="#6246e9"/><stop offset="0.39" stop-color="#604ce2"/><stop offset="0.46" stop-color="#5c55d8"/><stop offset="0.51" stop-color="#546bbf"/><stop offset="0.61" stop-color="#3ea580"/><stop offset="0.72" stop-color="#23ed30"/><stop offset="0.76" stop-color="#1ff725"/><stop offset="0.82" stop-color="#1dfd1e"/><stop offset="1" stop-color="#1cff1c"/></linearGradient><linearGradient id="Gradiente_sem_nome_38" x1="153.05" y1="212.99" x2="40.3" y2="139.77" gradientUnits="userSpaceOnUse"><stop offset="0" stop-color="#6341eb"/><stop offset="0.28" stop-color="#6241e9"/><stop offset="0.38" stop-color="#6041e2"/><stop offset="0.44" stop-color="#5c41d8"/><stop offset="0.47" stop-color="#5556c4"/><stop offset="0.59" stop-color="#31c25a"/><stop offset="0.65" stop-color="#23ed30"/><stop offset="0.7" stop-color="#1ff725"/><stop offset="0.78" stop-color="#1dfd1e"/><stop offset="1" stop-color="#1cff1c"/></linearGradient><linearGradient id="Gradiente_sem_nome_99" x1="254.65" y1="259.74" x2="171.81" y2="103.93" gradientUnits="userSpaceOnUse"><stop offset="0" stop-color="#6341ad"/><stop offset="0.3" stop-color="#6141ae"/><stop offset="0.39" stop-color="#5c41b0"/><stop offset="0.41" stop-color="#53539b"/><stop offset="0.45" stop-color="#446f7a"/><stop offset="0.49" stop-color="#38865f"/><stop offset="0.53" stop-color="#2f984a"/><stop offset="0.58" stop-color="#28a53b"/><stop offset="0.63" stop-color="#24ad33"/><stop offset="0.72" stop-color="#23af30"/><stop offset="0.76" stop-color="#1fad25"/><stop offset="0.82" stop-color="#1dac1e"/><stop offset="1" stop-color="#1cac1c"/></linearGradient><linearGradient id="Gradiente_sem_nome_33" x1="148.11" y1="204.66" x2="35.36" y2="131.44" gradientUnits="userSpaceOnUse"><stop offset="0" stop-color="#6344eb"/><stop offset="0.28" stop-color="#6246e9"/><stop offset="0.38" stop-color="#604ce2"/><stop offset="0.44" stop-color="#5c55d8"/><stop offset="0.46" stop-color="#5664c7"/><stop offset="0.59" stop-color="#32c65b"/><stop offset="0.65" stop-color="#23ed30"/><stop offset="0.7" stop-color="#1ff725"/><stop offset="0.78" stop-color="#1dfd1e"/><stop offset="1" stop-color="#1cff1c"/></linearGradient><linearGradient id="Nova_amostra_de_gradiente_3" x1="126.02" y1="235.19" x2="56.6" y2="104.62" gradientUnits="userSpaceOnUse"><stop offset="0" stop-color="#6344eb"/><stop offset="0.25" stop-color="#6246e9"/><stop offset="0.34" stop-color="#604ce2"/><stop offset="0.39" stop-color="#5c55d8"/><stop offset="0.41" stop-color="#5568c3"/><stop offset="0.44" stop-color="#488b9c"/><stop offset="0.47" stop-color="#3caa7a"/><stop offset="0.51" stop-color="#33c25f"/><stop offset="0.55" stop-color="#2cd54a"/><stop offset="0.59" stop-color="#27e33b"/><stop offset="0.64" stop-color="#24eb33"/><stop offset="0.72" stop-color="#23ed30"/><stop offset="0.76" stop-color="#1ff725"/><stop offset="0.82" stop-color="#1dfd1e"/><stop offset="1" stop-color="#1cff1c"/></linearGradient><linearGradient id="Nova_amostra_de_gradiente_1" x1="288.88" y1="222.6" x2="139.24" y2="125.42" gradientUnits="userSpaceOnUse"><stop offset="0" stop-color="#6344eb"/><stop offset="0.23" stop-color="#6246e9"/><stop offset="0.31" stop-color="#604ce2"/><stop offset="0.36" stop-color="#5c55d8"/><stop offset="0.37" stop-color="#5568c3"/><stop offset="0.4" stop-color="#488b9c"/><stop offset="0.43" stop-color="#3caa7a"/><stop offset="0.46" stop-color="#33c25f"/><stop offset="0.5" stop-color="#2cd54a"/><stop offset="0.54" stop-color="#27e33b"/><stop offset="0.58" stop-color="#24eb33"/><stop offset="0.65" stop-color="#23ed30"/><stop offset="0.7" stop-color="#1ff725"/><stop offset="0.78" stop-color="#1dfd1e"/><stop offset="1" stop-color="#1cff1c"/></linearGradient><linearGradient id="Nova_amostra_de_gradiente_3-2" x1="250" y1="252.05" x2="166.52" y2="95.04" xlink:href="#Nova_amostra_de_gradiente_3"/></defs><title>Logo site</title><circle class="cls-1" cx="149.5" cy="149.5" r="147.5"/><g class="cls-2"><path class="cls-3" d="M48.06,217.06V138.15a34.86,34.86,0,0,1,1.81-11.77,21,21,0,0,1,4.71-8,25,25,0,0,1,6.78-4.8A25.77,25.77,0,0,1,69,111.18a54.52,54.52,0,0,1,7.87-.55q46.69,1.28,58.28,2.9v21H82.81a16.48,16.48,0,0,0-5.43.72,4.66,4.66,0,0,0-2.8,2.53,11.77,11.77,0,0,0-1,3.08,29.44,29.44,0,0,0-.18,3.8V165.3L127,167.11v21L73.4,189.73v20.64a13.93,13.93,0,0,0,.91,5.52,5.22,5.22,0,0,0,2.89,2.89,11,11,0,0,0,3.35.91c.9.06,2.26.09,4.07.09h50.5v20.81q-4.53.54-18.64,1.36t-26.07,1.18l-11.76.54a54.79,54.79,0,0,1-7.78-.18,32.21,32.21,0,0,1-8-2,24.93,24.93,0,0,1-7.51-4.35,20,20,0,0,1-5.25-7.87A32.52,32.52,0,0,1,48.06,217.06Z" transform="translate(-12.5 -19.5)"/><path class="cls-4" d="M147.61,243.13l11.58-132.5h35.3l22.08,90.5,21.9-90.5h35.11l12.31,132.5h-25l-8.68-88.51-21.36,88.51H202.63l-22.26-88.51-7.78,88.51Z" transform="translate(-12.5 -19.5)"/></g><path class="cls-5" d="M43.12,208.74V129.82a34.9,34.9,0,0,1,1.81-11.77,21.23,21.23,0,0,1,4.71-8,25.17,25.17,0,0,1,6.78-4.8A26.07,26.07,0,0,1,64,102.85a54.56,54.56,0,0,1,7.87-.54q46.69,1.26,58.28,2.89v21H77.87a16.48,16.48,0,0,0-5.43.72,4.67,4.67,0,0,0-2.8,2.54,11.72,11.72,0,0,0-1,3.07,29.62,29.62,0,0,0-.18,3.81V157L122,158.78v21L68.46,181.4V202a13.93,13.93,0,0,0,.91,5.52,5.24,5.24,0,0,0,2.89,2.9,11.31,11.31,0,0,0,3.35.9c.91.06,2.26.09,4.07.09h50.5v20.82q-4.53.54-18.64,1.35T85.47,234.8l-11.76.54a54.79,54.79,0,0,1-7.78-.18,31.77,31.77,0,0,1-8-2,24.91,24.91,0,0,1-7.51-4.34A20.06,20.06,0,0,1,45.2,221,32.51,32.51,0,0,1,43.12,208.74Z" transform="translate(-12.5 -19.5)"/><path class="cls-6" d="M142.67,234.8l11.58-132.49h35.3l22.08,90.5,21.9-90.5h35.11L281,234.8H256l-8.68-88.51L225.93,234.8H197.69l-22.26-88.51-7.78,88.51Z" transform="translate(-12.5 -19.5)"/></svg>