<?xml version="1.0" encoding="utf-8"?>
<!-- Generator: Adobe Illustrator 24.0.1, SVG Export Plug-In . SVG Version: 6.00 Build 0)  -->
<svg version="1.1" id="Camada_1" xmlns="http://www.w3.org/2000/svg" xmlns:xlink="http://www.w3.org/1999/xlink" x="0px" y="0px"
	 viewBox="0 0 404.7 404.7" style="enable-background:new 0 0 404.7 404.7;" xml:space="preserve">
<style type="text/css">
	.st0{fill:#685D96;}
	.st1{fill:#FFFFFF;}
</style>
<g>
	<path class="st0" d="M198.7,32.6c97.5,0,177.3,78.8,177.4,177.3c0.1,98-79.7,178.1-178.8,177.4c-96.3-0.7-177-79.4-175.8-179.6
		C22.5,111.4,100.8,32.7,198.7,32.6z M300.6,291.9c-0.5-0.6-0.9-1-1.2-1.4c-4.3-4.4-8.5-8.9-12.8-13.3c-11-11.3-21.9-22.7-32.9-34
		c-11.4-11.8-22.8-23.6-34.2-35.4c-1.2-1.3-1.2-1.2-2.7-0.2c-6.1,4.3-12.2,8.6-18.4,12.9c-0.3,0.2-0.9,0.2-1.1,0
		c-4.7-3.3-9.4-6.6-14.1-9.9c-2-1.4-4-2.7-6-4.2c-27.2,28.5-54.3,56.8-81.6,85.4C164,291.9,232.1,291.9,300.6,291.9z M96.8,134.6
		c0,0.1-0.1,0.2-0.1,0.3c0.4,0.3,0.8,0.6,1.3,0.9c11.1,7.7,22.1,15.5,33.2,23.2c9.9,7,19.9,13.9,29.8,20.9
		c11.8,8.3,23.6,16.5,35.4,24.8c1.1,0.8,1.8,0.7,2.8,0c6.3-4.5,12.7-9,19.1-13.5c8.4-5.9,16.9-11.9,25.3-17.8
		c7.5-5.3,15.1-10.6,22.6-15.9c10.4-7.3,20.8-14.6,31.2-21.9c0.3-0.2,0.6-0.5,1.1-0.9C231.1,134.6,163.9,134.6,96.8,134.6z
		 M86.9,143.4c0,47,0,93.8,0,140.9c27-28.3,53.8-56.3,80.7-84.5C140.6,181,113.9,162.3,86.9,143.4z M308.5,283.6
		c0-46.9,0-93.6,0-140.5c-27,19-53.8,37.9-80.8,56.8C254.7,227.8,281.5,255.6,308.5,283.6z"/>
	<path class="st1" d="M300.6,291.9c-68.5,0-136.6,0-205.1,0c27.3-28.6,54.4-57,81.6-85.4c2,1.4,4,2.8,6,4.2
		c4.7,3.3,9.4,6.6,14.1,9.9c0.3,0.2,0.9,0.2,1.1,0c6.1-4.3,12.3-8.6,18.4-12.9c1.5-1.1,1.5-1.1,2.7,0.2
		c11.4,11.8,22.8,23.6,34.2,35.4c11,11.3,21.9,22.7,32.9,34c4.3,4.4,8.6,8.9,12.8,13.3C299.7,291,300.1,291.3,300.6,291.9z"/>
	<path class="st1" d="M96.8,134.6c67.1,0,134.3,0,201.7,0c-0.5,0.4-0.7,0.7-1.1,0.9c-10.4,7.3-20.8,14.6-31.2,21.9
		c-7.5,5.3-15.1,10.6-22.6,15.9c-8.4,5.9-16.9,11.9-25.3,17.8c-6.4,4.5-12.8,8.9-19.1,13.5c-1,0.7-1.7,0.8-2.8,0
		c-11.8-8.3-23.6-16.5-35.4-24.8c-9.9-7-19.9-13.9-29.8-20.9c-11.1-7.7-22.1-15.5-33.2-23.2c-0.4-0.3-0.8-0.6-1.3-0.9
		C96.7,134.8,96.7,134.7,96.8,134.6z"/>
	<path class="st1" d="M86.9,143.4c27,18.9,53.7,37.6,80.7,56.4c-26.9,28.1-53.6,56.2-80.7,84.5C86.9,237.2,86.9,190.5,86.9,143.4z"
		/>
	<path class="st1" d="M308.5,283.6c-27-28-53.9-55.8-80.8-83.7c27-18.9,53.8-37.8,80.8-56.8C308.5,190,308.5,236.7,308.5,283.6z"/>
</g>
<polyline class="st1" points="86.9,143.4 86.9,134.6 96.8,134.6 "/>
<polyline class="st1" points="308.5,143.1 308.5,134.6 298.5,134.6 "/>
<polyline class="st1" points="300.6,291.9 308.5,291.9 308.5,283.6 "/>
<polyline class="st1" points="95.5,291.9 86.9,291.9 86.9,284.3 "/>
</svg>
