<?xml version="1.0" encoding="utf-8"?>
<!-- Generator: Adobe Illustrator 24.0.1, SVG Export Plug-In . SVG Version: 6.00 Build 0)  -->
<svg version="1.1" id="Camada_1" xmlns="http://www.w3.org/2000/svg" xmlns:xlink="http://www.w3.org/1999/xlink" x="0px" y="0px"
	 viewBox="0 0 780.1 766.9" style="enable-background:new 0 0 780.1 766.9;" xml:space="preserve">
<style type="text/css">
	.st0{fill:#FFFFFF;}
</style>
<polygon class="st0" points="628.6,646.7 502.3,766.7 277.3,766.7 90.5,592.9 164.6,155.1 660.9,121.3 "/>
<g>
	<path d="M293,674.5c0,7.4-0.1,14.2,0,21.1c0.2,16.2,0.4,32.3,0.5,48.5c0,3.2-0.2,6.5-1,9.5c-2,7.7-7.3,12.4-15.2,13.1
		c-4.2,0.4-8.8,0.1-12.7-1.3c-53-18.1-99.9-46.4-140.7-84.8c-46.7-44-80.7-96.3-101.9-156.9C11.7,494.3,5,464,2,433
		c-2.9-28.8-2.6-57.6,0.8-86.3c6.7-56.9,24.8-110,54.6-158.9C93.8,128,142.8,81.3,204.1,47.5c39.9-22,82.6-36.2,127.7-43.1
		c21.9-3.3,44-4.8,66.2-4.3c56.8,1.2,110.9,14.1,162.1,39c37.5,18.3,71.2,42.1,101.2,71.2c31.3,30.4,56.9,65.1,76.6,104
		C757.4,253,770.2,294,776.2,337c3.8,27.5,4.8,55.1,3,82.7c-4.2,62.4-21.7,120.7-53.9,174.4c-49.3,82.3-119.4,139.6-210,171.4
		c-4,1.4-8.7,1.6-13,1.2c-9.3-1-15.6-8.4-15.7-18c-0.1-14.8,0.2-29.6,0.4-44.4c0.1-7.7,0.1-15.4,0.1-23.2c0-15.5,0.3-31.1-0.1-46.6
		c-0.5-19.9-4.4-39.1-15.9-55.9c-2.9-4.3-6.5-8.1-9.8-12.1c7.9-1.2,15.8-2.2,23.8-3.6c24.7-4.2,48.5-10.8,70.8-22.6
		c34.8-18.5,57.9-46.7,70.7-83.8c6.7-19.4,10.1-39.4,11.6-59.9c1-15,1.4-30.1-0.4-45.1c-3.4-27.8-13.5-52.9-30.8-75
		c-2.2-2.8-4.6-5.5-6.8-8.3c-0.5-0.6-0.9-1.8-0.6-2.6c10.9-31.4,8.9-62.7-1.2-93.9c-0.4-1.2-0.9-2.4-1.3-3.6
		c-2.2-6.1-2.2-6.1-8.8-6.2c-9.3-0.1-18.3,1.5-27.1,4.1c-22.4,6.5-42.7,17.5-62.3,30c-1.2,0.7-2.5,1.3-3.5,2.3
		c-4.8,4.6-10,4.5-16.3,2.8c-27-7-54.4-10.3-82.3-10.8c-34.6-0.6-68.5,3.7-102,12.3c-1.2,0.3-2.9,0-3.9-0.7
		c-19.3-12.8-39.3-24.5-61.2-32.5c-11.9-4.3-24-7.5-36.8-7.4c-7.1,0-7.2,0-9.5,6.7c-9.8,27.9-12.7,56.3-5.7,85.4
		c0.9,3.6,2.1,7.2,3.3,10.8c0.6,1.6,0.4,2.6-0.7,3.9c-11,12.6-19.9,26.5-26.4,42c-7.4,17.6-11.4,35.9-11.9,54.8
		c-0.8,27,1.5,53.8,8.8,79.9c7.1,25.7,19,48.9,37.8,68.1c15.1,15.5,33.1,26.7,53.1,34.8c20.4,8.3,41.6,13.1,63.4,16.1
		c4.6,0.6,9.2,1.2,14.3,1.8c-1.4,1.5-2.7,2.8-3.9,4.1c-10.8,12.2-16.8,26.7-19.3,42.5c-0.8,5.2-3.1,7.3-7.7,9
		c-15.1,5.5-30.5,8.8-46.7,7.1c-19-1.9-34.8-10.2-47.3-24.4c-5.1-5.7-9.4-12.2-13.6-18.7c-10.9-16.8-24.7-30-44-36.7
		c-8.4-2.9-16.9-4.2-25.7-2c-8.6,2.2-10.1,6.8-4,13.2c3.3,3.4,6.9,6.7,11,9.1c13.5,7.9,23.4,19.2,31.2,32.4c4.6,7.8,8.6,16,12,24.4
		c7,17,18.5,29.8,34.3,39c14.9,8.7,31.3,12.4,48.4,13.3c15.3,0.8,30.4-0.9,45.5-3.8C290.3,675,291.4,674.8,293,674.5z"/>
</g>
</svg>
