<svg id="Camada_1" data-name="Camada 1" xmlns="http://www.w3.org/2000/svg" viewBox="0 0 517.28 513"><defs><style>.cls-1{fill:#0277bd;}.cls-2{fill:#039be5;}.cls-3{fill:#fff;}.cls-4{fill:#eee;}.cls-5{fill:#e65100;}.cls-6{fill:#ff6d00;}</style></defs><title>icon-html_css</title><path class="cls-1" d="M550.87,215.45H258.69l25.78,292.18L404.78,542l120.31-34.37,25.78-292.18Z" transform="translate(-33.58 -29)"/><path class="cls-2" d="M404.78,241.23V515.36L501,487.86l21.49-246.63Z" transform="translate(-33.58 -29)"/><path class="cls-3" d="M483,284.2h-78.2v34.37h42.11L444.31,353H404.78v34.37h37.81L440,426l-35.23,12v36.09l67.89-22.34,6-98.82h0Z" transform="translate(-33.58 -29)"/><path class="cls-4" d="M404.78,284.2v34.37H328.3l-2.58-34.37ZM365.25,353,367,387.32h37.81V353Zm3.44,51.56H334.31l2.58,47.26,67.89,22.34V438l-35.24-12Z" transform="translate(-33.58 -29)"/><path class="cls-5" d="M325.76,29H33.58L59.36,321.18l120.31,34.37L300,321.18,325.76,29Z" transform="translate(-33.58 -29)"/><path class="cls-6" d="M179.67,54.78V328.91l96.25-27.5L297.4,54.78Z" transform="translate(-33.58 -29)"/><path class="cls-3" d="M179.67,200.87V166.49h73.91l-6,98.83-67.89,22.34V251.57l35.24-12,2.57-38.67Zm76.48-68.75,2.58-34.37H179.67v34.37Z" transform="translate(-33.58 -29)"/><path class="cls-4" d="M179.67,251.57v36.09l-67.89-22.34-3.43-47.27h34.37l1.72,21.49ZM137.56,132.12h42.11V97.75h-78.2l6,103.12h72.18V166.49H140.14Z" transform="translate(-33.58 -29)"/></svg>