<svg id="Camada_1" data-name="Camada 1" xmlns="http://www.w3.org/2000/svg" viewBox="0 0 68.32 68.37"><defs><style>.cls-1{fill:#1cff1c;}.cls-2{fill:#101010;}.cls-3{fill:#6344eb;}</style></defs><title>icone-tecnologia</title><path class="cls-1" d="M22.65,60.55a20.28,20.28,0,0,0-3.52,2.15c-3.23,2.93-5.21.75-7.38-1.48-2-2-3.54-3.5-1.5-6.85,3.78-6.19,2.4-9.29-4.92-11.12-4-1-3.33-3.58-3.36-6.18S1.44,32,5.52,31.12c7-1.47,8.41-4.83,4.68-11.27C8.2,16.4,10.07,15,12,13s3.38-3.79,6.81-1.75c6.36,3.78,9.7,2.4,11.19-4.68.87-4.12,3.38-3.49,6-3.49s5.17-.61,6.14,3.4c1.77,7.28,4.93,8.66,11.14,4.86,3.37-2,4.84-.38,6.84,1.55,2.26,2.17,3.87,3.86,1.54,7.44-3.54,5.45-1.71,9.5,4.87,10.75,4,.77,3.74,3.06,3.73,5.81,0,3,.44,5.6-4,6.42-6.49,1.22-8.05,5.13-4.42,10.9,2,3.23.8,4.84-1.3,6.86s-3.7,4.14-7.42,1.79c-5.69-3.62-9.68-2-10.92,4.53-.84,4.41-3.49,3.83-6.44,4-3.38.18-5.86-.32-5.77-4.54C30.09,62.17,26.18,61.84,22.65,60.55Z" transform="translate(-1.93 -3.07)"/><path class="cls-2" d="M36.25,53.53A16.31,16.31,0,1,1,52.39,36.88,16.42,16.42,0,0,1,36.25,53.53Z" transform="translate(-1.93 -3.07)"/><path class="cls-3" d="M43.57,36.89c-.47,4.55-2.75,7.59-7.38,7.64s-7.39-2.78-7.41-7.38c0-4.27,2.65-7,6.83-7.24C40.27,29.61,42.7,32.52,43.57,36.89Z" transform="translate(-1.93 -3.07)"/></svg>