<?xml version="1.0" encoding="utf-8"?>
<!-- Generator: Adobe Illustrator 24.0.1, SVG Export Plug-In . SVG Version: 6.00 Build 0)  -->
<svg version="1.1"
	 id="svg2" xmlns:cc="http://creativecommons.org/ns#" xmlns:dc="http://purl.org/dc/elements/1.1/" xmlns:rdf="http://www.w3.org/1999/02/22-rdf-syntax-ns#" xmlns:svg="http://www.w3.org/2000/svg"
	 xmlns="http://www.w3.org/2000/svg" xmlns:xlink="http://www.w3.org/1999/xlink" x="0px" y="0px" viewBox="0 0 646.9 649.1"
	 style="enable-background:new 0 0 646.9 649.1;" xml:space="preserve">
<style type="text/css">
	.st0{fill:#30A340;}
	.st1{fill-rule:evenodd;clip-rule:evenodd;fill:#FEFEFE;}
	.st2{fill-rule:evenodd;clip-rule:evenodd;fill:#FFFFFF;}
</style>
<g id="g12" transform="scale(0.1)">
	<path id="path14" class="st0" d="M6065.9,3397.5c0,1570.6-1273.6,2845.1-2844.2,2845.1c-840.6,0-1247.1-264.4-2250.7-493.5
		c-660.2-150.7-240-1570.9-593.5-2351.6C-270.4,1966.7,1650.6,553.1,3221.7,553.1C4792.3,553.1,6065.9,1826.9,6065.9,3397.5"/>
	<path id="path16" class="st1" d="M3665,5821.2c-142,24.1-284.7,37-359.9,35.4c-553-1.6-1003.9-125.5-1418.5-376.4
		c-53-32.2-99.3-40.3-161.3-24.1c-278.7,77.2-559.4,146.4-838.5,220.3c-58.7,17.7-64.3,4.9-49.4-48.3
		c73.9-265.4,143.6-529.2,220-791.4c21.3-74,13.7-130.3-28.6-196.3c-573.5-921.7-549.4-2070.3,92.5-2922.9
		c666.8-888,1573.3-1251.5,2658-1019.9C4848.1,922.8,5529.4,1612.9,5780,2676.3C6122.2,4130.5,5135.2,5576.6,3665,5821.2z
		 M6293.9,2526.6C5948.4,1093.3,4715.4,115.7,3225,98.8c-196.3,3.2-401.8,19.3-604.9,61.9C540.9,581.7-536.5,2887,477,4748.2
		c26.1,49.8,28.2,90.1,13.7,141.6c-134.7,490.6-268.3,981.3-402.6,1470.3c-21.7,80.5-21.7,80.5,58.7,59.6
		c508.8-133.5,1016.7-265.5,1525.1-400.5c42.2-11.3,75.2-6.5,113.7,12.9c654.8,334.6,1344.5,432.7,2066.8,292.8
		C5578,5990.1,6705.8,4235,6293.9,2526.6"/>
	<path id="path18" class="st2" d="M4047.8,4751.4c-112.2,4.9-219.2-20.9-326.6-49.9C2999.4,4494,2457.7,4042,2022.5,3446.8
		c-164.5-223.6-316.8-455.2-367.5-733.5c-60.8-334.6,35.3-617.7,284.3-849.4c79.2-72.4,320.5-104.5,417-57.9
		c35.8,17.7,58.7,49.9,73.6,83.7c91.3,217.2,181.4,431.1,270.7,648.3c16.9,41.9,9.6,82-9.2,123.9
		c-45.9,99.7-119.5,180.1-194.3,258.9c-56.7,58-59.1,111-17.3,180.2c255,424.7,607.7,733.5,1069,918.5
		c68.8,27.3,120.7,17.7,166.5-40.2c76.9-94.9,158.1-189.8,230.9-287.9c49.8-69.2,107-78.8,177.3-46.7
		c152.5,69.2,304.8,141.6,457.3,214c34.2,14.5,68,32.2,101.7,48.3c154.4,77.3,152.9,78.8,139.6,249.3
		c-25.8,333-275.5,497.1-571.5,579.2C4185.4,4753,4116.2,4754.7,4047.8,4751.4"/>
</g>
</svg>
